<mxfile host="app.diagrams.net" modified="2023-10-13T09:28:06.630Z" agent="Mozilla/5.0 (Windows NT 10.0; Win64; x64) AppleWebKit/537.36 (KHTML, like Gecko) Chrome/118.0.0.0 Safari/537.36" etag="AgWEqupoAy8AzYGuEs6f" version="22.0.4" type="device">
  <diagram name="Сторінка-1" id="l1S29hMpA7wouOSOD6kj">
    <mxGraphModel dx="1447" dy="821" grid="0" gridSize="10" guides="1" tooltips="1" connect="1" arrows="1" fold="1" page="0" pageScale="1" pageWidth="827" pageHeight="1169" math="0" shadow="0">
      <root>
        <mxCell id="0" />
        <mxCell id="1" parent="0" />
        <mxCell id="zcJTPCMrcPo48gwb9o_7-1" value="" style="rounded=0;whiteSpace=wrap;html=1;fontSize=16;" vertex="1" parent="1">
          <mxGeometry x="147" y="14" width="724" height="473" as="geometry" />
        </mxCell>
        <mxCell id="zcJTPCMrcPo48gwb9o_7-27" style="edgeStyle=none;curved=1;rounded=0;orthogonalLoop=1;jettySize=auto;html=1;fontSize=12;startSize=8;endSize=8;" edge="1" parent="1" source="zcJTPCMrcPo48gwb9o_7-2" target="zcJTPCMrcPo48gwb9o_7-9">
          <mxGeometry relative="1" as="geometry" />
        </mxCell>
        <mxCell id="zcJTPCMrcPo48gwb9o_7-32" style="edgeStyle=none;curved=1;rounded=0;orthogonalLoop=1;jettySize=auto;html=1;fontSize=12;startSize=8;endSize=8;" edge="1" parent="1" source="zcJTPCMrcPo48gwb9o_7-2" target="zcJTPCMrcPo48gwb9o_7-31">
          <mxGeometry relative="1" as="geometry" />
        </mxCell>
        <mxCell id="zcJTPCMrcPo48gwb9o_7-2" value="Створення курсу" style="ellipse;whiteSpace=wrap;html=1;fontSize=16;" vertex="1" parent="1">
          <mxGeometry x="182" y="104" width="135" height="85" as="geometry" />
        </mxCell>
        <mxCell id="zcJTPCMrcPo48gwb9o_7-22" style="edgeStyle=none;curved=1;rounded=0;orthogonalLoop=1;jettySize=auto;html=1;fontSize=12;startSize=8;endSize=8;" edge="1" parent="1" source="zcJTPCMrcPo48gwb9o_7-4" target="zcJTPCMrcPo48gwb9o_7-6">
          <mxGeometry relative="1" as="geometry" />
        </mxCell>
        <mxCell id="zcJTPCMrcPo48gwb9o_7-4" value="Завантаження додатку" style="ellipse;whiteSpace=wrap;html=1;fontSize=16;" vertex="1" parent="1">
          <mxGeometry x="152" y="399" width="183" height="82" as="geometry" />
        </mxCell>
        <mxCell id="zcJTPCMrcPo48gwb9o_7-23" style="edgeStyle=none;curved=1;rounded=0;orthogonalLoop=1;jettySize=auto;html=1;fontSize=12;startSize=8;endSize=8;" edge="1" parent="1" source="zcJTPCMrcPo48gwb9o_7-6" target="zcJTPCMrcPo48gwb9o_7-8">
          <mxGeometry relative="1" as="geometry" />
        </mxCell>
        <mxCell id="zcJTPCMrcPo48gwb9o_7-6" value="Реєстрація" style="ellipse;whiteSpace=wrap;html=1;fontSize=16;" vertex="1" parent="1">
          <mxGeometry x="323" y="331" width="106" height="79" as="geometry" />
        </mxCell>
        <mxCell id="zcJTPCMrcPo48gwb9o_7-30" style="edgeStyle=none;curved=1;rounded=0;orthogonalLoop=1;jettySize=auto;html=1;fontSize=12;startSize=8;endSize=8;" edge="1" parent="1" source="zcJTPCMrcPo48gwb9o_7-8" target="zcJTPCMrcPo48gwb9o_7-29">
          <mxGeometry relative="1" as="geometry" />
        </mxCell>
        <mxCell id="zcJTPCMrcPo48gwb9o_7-8" value="Початок терапії" style="ellipse;whiteSpace=wrap;html=1;fontSize=16;" vertex="1" parent="1">
          <mxGeometry x="426" y="274" width="119" height="69" as="geometry" />
        </mxCell>
        <mxCell id="zcJTPCMrcPo48gwb9o_7-33" style="edgeStyle=none;curved=1;rounded=0;orthogonalLoop=1;jettySize=auto;html=1;fontSize=12;startSize=8;endSize=8;" edge="1" parent="1" source="zcJTPCMrcPo48gwb9o_7-9" target="zcJTPCMrcPo48gwb9o_7-31">
          <mxGeometry relative="1" as="geometry" />
        </mxCell>
        <mxCell id="zcJTPCMrcPo48gwb9o_7-9" value="Консультація" style="ellipse;whiteSpace=wrap;html=1;fontSize=16;" vertex="1" parent="1">
          <mxGeometry x="456" y="155" width="111" height="82" as="geometry" />
        </mxCell>
        <mxCell id="zcJTPCMrcPo48gwb9o_7-10" value="Закінчення курсу" style="ellipse;whiteSpace=wrap;html=1;fontSize=16;" vertex="1" parent="1">
          <mxGeometry x="728" y="268" width="132" height="85" as="geometry" />
        </mxCell>
        <mxCell id="zcJTPCMrcPo48gwb9o_7-25" style="edgeStyle=none;curved=1;rounded=0;orthogonalLoop=1;jettySize=auto;html=1;exitX=0.5;exitY=0.5;exitDx=0;exitDy=0;exitPerimeter=0;entryX=0;entryY=0.5;entryDx=0;entryDy=0;fontSize=12;startSize=8;endSize=8;" edge="1" parent="1" source="zcJTPCMrcPo48gwb9o_7-11" target="zcJTPCMrcPo48gwb9o_7-4">
          <mxGeometry relative="1" as="geometry" />
        </mxCell>
        <mxCell id="zcJTPCMrcPo48gwb9o_7-11" value="Споживач" style="shape=umlActor;verticalLabelPosition=bottom;verticalAlign=top;html=1;outlineConnect=0;fontSize=16;" vertex="1" parent="1">
          <mxGeometry x="13" y="271" width="30" height="60" as="geometry" />
        </mxCell>
        <mxCell id="zcJTPCMrcPo48gwb9o_7-26" style="edgeStyle=none;curved=1;rounded=0;orthogonalLoop=1;jettySize=auto;html=1;exitX=0.5;exitY=0.5;exitDx=0;exitDy=0;exitPerimeter=0;entryX=0;entryY=0.5;entryDx=0;entryDy=0;fontSize=12;startSize=8;endSize=8;" edge="1" parent="1" source="zcJTPCMrcPo48gwb9o_7-12" target="zcJTPCMrcPo48gwb9o_7-2">
          <mxGeometry relative="1" as="geometry" />
        </mxCell>
        <mxCell id="zcJTPCMrcPo48gwb9o_7-12" value="Психолог" style="shape=umlActor;verticalLabelPosition=bottom;verticalAlign=top;html=1;outlineConnect=0;fontSize=16;" vertex="1" parent="1">
          <mxGeometry x="13" y="162" width="30" height="60" as="geometry" />
        </mxCell>
        <mxCell id="zcJTPCMrcPo48gwb9o_7-28" style="edgeStyle=none;curved=1;rounded=0;orthogonalLoop=1;jettySize=auto;html=1;entryX=0.629;entryY=0.966;entryDx=0;entryDy=0;entryPerimeter=0;fontSize=12;startSize=8;endSize=8;" edge="1" parent="1" source="zcJTPCMrcPo48gwb9o_7-8" target="zcJTPCMrcPo48gwb9o_7-9">
          <mxGeometry relative="1" as="geometry" />
        </mxCell>
        <mxCell id="zcJTPCMrcPo48gwb9o_7-36" style="edgeStyle=none;curved=1;rounded=0;orthogonalLoop=1;jettySize=auto;html=1;fontSize=12;startSize=8;endSize=8;" edge="1" parent="1" source="zcJTPCMrcPo48gwb9o_7-29" target="zcJTPCMrcPo48gwb9o_7-35">
          <mxGeometry relative="1" as="geometry" />
        </mxCell>
        <mxCell id="zcJTPCMrcPo48gwb9o_7-29" value="Отримання терапії" style="ellipse;whiteSpace=wrap;html=1;fontSize=16;" vertex="1" parent="1">
          <mxGeometry x="567" y="274" width="119" height="69" as="geometry" />
        </mxCell>
        <mxCell id="zcJTPCMrcPo48gwb9o_7-31" value="Оновлення&lt;br&gt;курсу" style="ellipse;whiteSpace=wrap;html=1;fontSize=16;" vertex="1" parent="1">
          <mxGeometry x="551" y="28" width="111" height="82" as="geometry" />
        </mxCell>
        <mxCell id="zcJTPCMrcPo48gwb9o_7-37" style="edgeStyle=none;curved=1;rounded=0;orthogonalLoop=1;jettySize=auto;html=1;fontSize=12;startSize=8;endSize=8;" edge="1" parent="1" source="zcJTPCMrcPo48gwb9o_7-35" target="zcJTPCMrcPo48gwb9o_7-10">
          <mxGeometry relative="1" as="geometry" />
        </mxCell>
        <mxCell id="zcJTPCMrcPo48gwb9o_7-35" value="Поліпшення&lt;br&gt;психо-емоційного стану" style="ellipse;whiteSpace=wrap;html=1;fontSize=16;" vertex="1" parent="1">
          <mxGeometry x="638" y="366" width="155" height="67" as="geometry" />
        </mxCell>
      </root>
    </mxGraphModel>
  </diagram>
</mxfile>
